<svg xmlns="http://www.w3.org/2000/svg" viewBox="0 0 7.83 6.14"><path d="M.23 2.67l2.32 1.16 1.21-.6-2.32-1.16-1.21.6zm3.61 3.31h-.06L1.52 4.85a.28.28 0 0 1-.16-.26V3.42l1.15.57a.07.07 0 0 0 .06 0l1.26-.63V6zm.14-2.64v2.64h.06L6.3 4.85a.29.29 0 0 0 .12-.11.29.29 0 0 0 0-.15V3.42l-1.15.57a.07.07 0 0 1-.06 0l-1.26-.63zm2.62 0v1.24a.43.43 0 0 1-.24.39L4.1 6.1a.42.42 0 0 1-.39 0L1.46 4.92a.43.43 0 0 1-.24-.39V3.29L.03 2.7a.07.07 0 0 1 0-.1l1.24-.62-1.24-.62a.07.07 0 0 1 0-.1L2.51.02a.07.07 0 0 1 .06 0L3.9.69 5.23.02a.07.07 0 0 1 .06 0l2.48 1.24a.07.07 0 0 1 0 .1l-1.24.62 1.24.62a.07.07 0 0 1 0 .1l-1.19.59zM3.98.88v2.24L6.22 2 3.98.88zm-.14 2.23L1.6 1.99 3.84.87v2.24zm2.55-1.2l1.21-.6L5.28.15l-1.21.6 2.32 1.16zM5.28 3.83l-1.21-.6 2.32-1.16 1.21.6-2.32 1.16zM3.75.75L2.54.15.22 1.31l1.21.6z" fill="#fff" fill-rule="evenodd"/></svg>