<svg xmlns="http://www.w3.org/2000/svg" viewBox="0 0 141.15 49.75"><path d="M72.36 43.89a3.18 3.18 0 0 1-1.31.24 2.32 2.32 0 0 1-2.43-2.54 2.47 2.47 0 0 1 2.59-2.61 2.66 2.66 0 0 1 1.18.22l-.16.52a2.33 2.33 0 0 0-1-.21 1.85 1.85 0 0 0-1.94 2 1.81 1.81 0 0 0 1.91 2 2.55 2.55 0 0 0 1-.21zm7.11-2.37a2.33 2.33 0 0 1-2.31 2.62 2.28 2.28 0 0 1-2.23-2.52 2.36 2.36 0 0 1 2.31-2.61 2.26 2.26 0 0 1 2.23 2.51zm-3.85.07a1.78 1.78 0 0 0 1.58 2c1 0 1.59-.94 1.59-2.06a1.79 1.79 0 0 0-1.58-2c-1.06 0-1.59.98-1.59 2.06zm6.89 2.46v-5h.7l1.59 2.51a14.15 14.15 0 0 1 .89 1.61c-.06-.66-.07-1.27-.07-2v-2.08h.6v5h-.6l-1.58-2.52a15.77 15.77 0 0 1-.93-1.66c0 .63.05 1.22.05 2v2.12h-.6zm6.98-.78a2.27 2.27 0 0 0 1.15.32.89.89 0 0 0 1-.85 1.08 1.08 0 0 0-.94-1 1.56 1.56 0 0 1-1.31-1.41A1.43 1.43 0 0 1 91 38.98a2.26 2.26 0 0 1 1.1.24l-.18.52a2 2 0 0 0-.94-.24.8.8 0 0 0-.94.74 1.1 1.1 0 0 0 1 1 1.54 1.54 0 0 1 1.27 1.46 1.5 1.5 0 0 1-1.74 1.43 2.57 2.57 0 0 1-1.27-.32zm6.57-4.19v2.94c0 1.11.49 1.58 1.16 1.58s1.21-.49 1.21-1.58v-2.94h.65v2.9c0 1.53-.8 2.15-1.88 2.15s-1.78-.58-1.78-2.12v-2.93h.65zm6.34 0h.64v4.43h2.12v.54h-2.76v-5zm5.98.51h-1.51v-.55h3.68v.55h-1.52v4.42h-.65v-4.42zm5.57-.51v5h-.64v-5h.64zm3.33 4.97v-5h.7l1.64 2.54a14.17 14.17 0 0 1 .89 1.61c-.06-.66-.07-1.27-.07-2v-2.08h.6v5h-.65l-1.58-2.52a15.77 15.77 0 0 1-.93-1.66c0 .63.05 1.22.05 2v2.12h-.6zm10.85-.22a4.64 4.64 0 0 1-1.53.27 2.33 2.33 0 0 1-2.55-2.51 2.49 2.49 0 0 1 2.69-2.56 3.06 3.06 0 0 1 1.24.23l-.15.52a2.59 2.59 0 0 0-1.1-.21 1.86 1.86 0 0 0-2 2 1.82 1.82 0 0 0 1.92 2 2.11 2.11 0 0 0 .86-.13v-1.48h-1v-.52h1.64v2.39zM68.51 28.86v1.44h1.21v1.24h-4.61v-1.06l.48-.05a.67.67 0 0 0 .36-.17.88.88 0 0 0 .22-.41 2.87 2.87 0 0 0 .08-.76v-2.6l-4.42.05v3.81h1.21v1.24h-4.61v-1.06l.48-.05a.66.66 0 0 0 .36-.17.89.89 0 0 0 .22-.41 2.92 2.92 0 0 0 .08-.76v-7.59h-1.21v-1.24h4.61v1.06a3.92 3.92 0 0 0-.49.05.7.7 0 0 0-.36.17.86.86 0 0 0-.22.41 2.88 2.88 0 0 0-.08.76v2.52h4.42V21.5h-1.21v-1.24h4.59v1.06a3.92 3.92 0 0 0-.49.05.71.71 0 0 0-.36.17.87.87 0 0 0-.22.41 2.92 2.92 0 0 0-.08.76v6.15zm9.65-1.69l-5.28.09a5.75 5.75 0 0 0 .12 1.22 2.82 2.82 0 0 0 .39 1 1.9 1.9 0 0 0 .7.63 2.21 2.21 0 0 0 1.06.23 2.64 2.64 0 0 0 .54-.06 2.9 2.9 0 0 0 .61-.2 3.55 3.55 0 0 0 .62-.37 3.18 3.18 0 0 0 .59-.57l.72.68a4.68 4.68 0 0 1-.92 1 4.41 4.41 0 0 1-1 .6 4 4 0 0 1-1 .29 5.8 5.8 0 0 1-.88.07 4.24 4.24 0 0 1-1.62-.3 3.54 3.54 0 0 1-1.19-.89 3.84 3.84 0 0 1-.81-1.34 5.1 5.1 0 0 1-.29-1.76 4.6 4.6 0 0 1 .29-1.62 4.28 4.28 0 0 1 .81-1.37 3.9 3.9 0 0 1 1.27-.95 3.79 3.79 0 0 1 1.65-.35 5.16 5.16 0 0 1 .89.08 3.53 3.53 0 0 1 .85.26 3.22 3.22 0 0 1 .75.48 2.77 2.77 0 0 1 .6.74 4 4 0 0 1 .4 1 5.61 5.61 0 0 1 .13 1.41zm-3.54-2.84a1.45 1.45 0 0 0-.63.13 1.47 1.47 0 0 0-.48.37 1.9 1.9 0 0 0-.33.57 3.22 3.22 0 0 0-.18.73h3a3.37 3.37 0 0 0-.12-.84 1.58 1.58 0 0 0-.28-.56 1 1 0 0 0-.41-.31 1.39 1.39 0 0 0-.57-.09zm4.88.99a1.52 1.52 0 0 1 .26-.86 2.27 2.27 0 0 1 .72-.67 3.86 3.86 0 0 1 1.08-.43 5.52 5.52 0 0 1 1.32-.15 4.06 4.06 0 0 1 1.26.18 2.35 2.35 0 0 1 .93.56 2.43 2.43 0 0 1 .58 1 4.23 4.23 0 0 1 .2 1.38v4.04h1v1.22h-3v-.74a3.23 3.23 0 0 1-1.14.77 3.47 3.47 0 0 1-1.23.22 2.5 2.5 0 0 1-.93-.16 1.89 1.89 0 0 1-.69-.45 2 2 0 0 1-.43-.68 2.37 2.37 0 0 1-.15-.85 2.24 2.24 0 0 1 .18-.92 2.44 2.44 0 0 1 .5-.73 3.23 3.23 0 0 1 .75-.56 5.21 5.21 0 0 1 .93-.39 7.29 7.29 0 0 1 1-.24 9.47 9.47 0 0 1 1.08-.11v-.84a3 3 0 0 0-.05-.59 1.28 1.28 0 0 0-.19-.47.92.92 0 0 0-.35-.31 1.16 1.16 0 0 0-.55-.1 1.8 1.8 0 0 0-.61.13 1.43 1.43 0 0 0-.49.33.62.62 0 0 1 .16.31 1.44 1.44 0 0 1 0 .29 1 1 0 0 1-.06.35.93.93 0 0 1-.2.32 1 1 0 0 1-.34.24 1.15 1.15 0 0 1-.49.09 1 1 0 0 1-.42-.1 1 1 0 0 1-.31-.24 1 1 0 0 1-.19-.34 1.32 1.32 0 0 1-.13-.5zm4.12 2.47a4.7 4.7 0 0 0-.85.17 2.58 2.58 0 0 0-.69.31 1.52 1.52 0 0 0-.46.46 1.13 1.13 0 0 0-.17.61.93.93 0 0 0 .09.39.81.81 0 0 0 .2.26.76.76 0 0 0 .28.15 1.19 1.19 0 0 0 .33 0 1.56 1.56 0 0 0 .7-.16 1.89 1.89 0 0 0 .57-.39v-1.8zm7.1 1.12v1.4h1v1.22h-4.21v-1a1.15 1.15 0 0 0 .53-.1.66.66 0 0 0 .29-.29 1.24 1.24 0 0 0 .12-.45v-7.85c0-.25 0-.5.05-.74h-1.13v-1.21a9.1 9.1 0 0 0 1 0 6.26 6.26 0 0 0 .73-.12 2.75 2.75 0 0 0 .49-.16 1.08 1.08 0 0 0 .27-.16h.87v9.54zm1.58-5.45a1.65 1.65 0 0 0 .78-.21 2.72 2.72 0 0 0 .65-.5 3.27 3.27 0 0 0 .49-.65 3.37 3.37 0 0 0 .29-.66h1.18v2h2v1.24h-2v3.95a4.48 4.48 0 0 0 0 .56 1.66 1.66 0 0 0 .14.5.92.92 0 0 0 .3.36.83.83 0 0 0 .5.14h.25a1.37 1.37 0 0 0 .34-.13 2.08 2.08 0 0 0 .41-.29 2.93 2.93 0 0 0 .45-.52l.78.72a4.61 4.61 0 0 1-.88 1 3.47 3.47 0 0 1-.84.52 2.59 2.59 0 0 1-.73.2h-.55a3.75 3.75 0 0 1-.55 0 2.39 2.39 0 0 1-.56-.16 2 2 0 0 1-.53-.33 2.05 2.05 0 0 1-.44-.56 3.13 3.13 0 0 1-.3-.84 5.35 5.35 0 0 1-.11-1.16v-3.87h-1.1v-1.34zm15.05 5.45v1.4h1v1.22h-4.23v-1a1.15 1.15 0 0 0 .53-.1.65.65 0 0 0 .29-.29 1.25 1.25 0 0 0 .12-.45v-2.87a3 3 0 0 0-.32-1.55 1.08 1.08 0 0 0-1-.49 2.11 2.11 0 0 0-.8.18 2.51 2.51 0 0 0-.66.41v5.03h1v1.22h-4.21v-1a1.15 1.15 0 0 0 .53-.1.66.66 0 0 0 .29-.29 1.24 1.24 0 0 0 .12-.45v-7.85c0-.25 0-.5.05-.74h-1.13v-1.21a9.1 9.1 0 0 0 1 0 6.25 6.25 0 0 0 .73-.12 2.76 2.76 0 0 0 .49-.16 1 1 0 0 0 .27-.16h.87v4.73a3.54 3.54 0 0 1 .54-.35 5.53 5.53 0 0 1 .62-.28 4.62 4.62 0 0 1 .63-.19 2.53 2.53 0 0 1 .55-.07 3.33 3.33 0 0 1 1.25.21 1.93 1.93 0 0 1 .84.64 2.83 2.83 0 0 1 .47 1.11 7.48 7.48 0 0 1 .15 1.6v2.16zm6.88-3.32a1.49 1.49 0 0 1 0-.34 1.11 1.11 0 0 1 .15-.36.8.8 0 0 0-.22-.26 1.3 1.3 0 0 0-.29-.16 1.38 1.38 0 0 0-.31-.09h-.27a1.53 1.53 0 0 0-.75.18 1.68 1.68 0 0 0-.58.55 2.85 2.85 0 0 0-.38.9 4.94 4.94 0 0 0-.14 1.23 5.92 5.92 0 0 0 .11 1.18 3.11 3.11 0 0 0 .37 1 2 2 0 0 0 .68.69 2 2 0 0 0 1 .26 2.4 2.4 0 0 0 .65-.09 2.93 2.93 0 0 0 .62-.25 3.36 3.36 0 0 0 .57-.39 3.21 3.21 0 0 0 .48-.5l.74.71a5.29 5.29 0 0 1-.9 1 4.32 4.32 0 0 1-.93.6 3.77 3.77 0 0 1-.93.29 5.46 5.46 0 0 1-.9.08 4.25 4.25 0 0 1-1.53-.27 3.62 3.62 0 0 1-1.25-.8 3.79 3.79 0 0 1-.85-1.29 4.54 4.54 0 0 1-.31-1.74 4.81 4.81 0 0 1 .31-1.71 4.37 4.37 0 0 1 .85-1.41 4.07 4.07 0 0 1 1.32-1 4 4 0 0 1 1.7-.36 4.36 4.36 0 0 1 1.34.19 3.1 3.1 0 0 1 1 .49 2.06 2.06 0 0 1 .58.7 1.83 1.83 0 0 1 .2.82 1.42 1.42 0 0 1-.07.46 1.13 1.13 0 0 1-.22.38 1 1 0 0 1-.36.26 1.17 1.17 0 0 1-.48.09 1.07 1.07 0 0 1-.49-.1 1 1 0 0 1-.32-.25.91.91 0 0 1-.18-.34 1.31 1.31 0 0 1-.01-.35zm3.55-.27a1.52 1.52 0 0 1 .26-.86 2.27 2.27 0 0 1 .72-.67 3.86 3.86 0 0 1 1.08-.43 5.53 5.53 0 0 1 1.32-.15 4.05 4.05 0 0 1 1.26.18 2.35 2.35 0 0 1 .93.56 2.43 2.43 0 0 1 .58 1 4.23 4.23 0 0 1 .2 1.38v4.04h1v1.22h-3v-.74a3.23 3.23 0 0 1-1.14.77 3.47 3.47 0 0 1-1.23.22 2.5 2.5 0 0 1-.93-.16 1.89 1.89 0 0 1-.69-.45 2 2 0 0 1-.43-.68 2.37 2.37 0 0 1-.15-.85 2.24 2.24 0 0 1 .18-.92 2.43 2.43 0 0 1 .5-.73 3.23 3.23 0 0 1 .75-.56 5.2 5.2 0 0 1 .93-.39 7.29 7.29 0 0 1 1-.24 9.47 9.47 0 0 1 1.08-.11v-.84a3 3 0 0 0-.05-.59 1.28 1.28 0 0 0-.19-.47.92.92 0 0 0-.35-.31 1.16 1.16 0 0 0-.55-.1 1.8 1.8 0 0 0-.61.13 1.43 1.43 0 0 0-.49.33.62.62 0 0 1 .16.31 1.44 1.44 0 0 1 0 .29 1 1 0 0 1-.06.35.93.93 0 0 1-.2.32 1 1 0 0 1-.34.24 1.15 1.15 0 0 1-.49.09 1 1 0 0 1-.42-.1 1 1 0 0 1-.31-.24 1 1 0 0 1-.19-.34 1.32 1.32 0 0 1-.13-.5zm4.12 2.47a4.7 4.7 0 0 0-.85.17 2.58 2.58 0 0 0-.69.31 1.52 1.52 0 0 0-.46.46 1.13 1.13 0 0 0-.17.61.93.93 0 0 0 .09.39.81.81 0 0 0 .2.26.76.76 0 0 0 .28.15 1.19 1.19 0 0 0 .33 0 1.56 1.56 0 0 0 .7-.16 1.9 1.9 0 0 0 .57-.43v-1.8zm9.72-4.58a1.84 1.84 0 0 1 .54.08 1.28 1.28 0 0 1 .45.24 1.14 1.14 0 0 1 .31.41 1.45 1.45 0 0 1 .11.6 1.32 1.32 0 0 1-.06.39 1.09 1.09 0 0 1-.2.36 1 1 0 0 1-.35.27 1.17 1.17 0 0 1-.52.11 1.41 1.41 0 0 1-.34 0 .93.93 0 0 1-.32-.15.94.94 0 0 1-.25-.29 1.09 1.09 0 0 1-.13-.46.89.89 0 0 0-.49.16 2.37 2.37 0 0 0-.46.4 3.34 3.34 0 0 0-.38.51 2.46 2.46 0 0 0-.24.49v4.02h1v1.22h-4.27v-1a1.15 1.15 0 0 0 .53-.1.66.66 0 0 0 .29-.29 1.24 1.24 0 0 0 .12-.45v-3.94c0-.24 0-.48.05-.72h-1.13v-1.21a8.88 8.88 0 0 0 1 0 6.5 6.5 0 0 0 .74-.27 2.67 2.67 0 0 0 .49-.16 1 1 0 0 0 .27-.16h.79l.07 1.38q.16-.21.38-.47a3.39 3.39 0 0 1 .52-.48 3.12 3.12 0 0 1 .65-.38 1.92 1.92 0 0 1 .83-.11zm9.46 3.96l-5.28.09a5.76 5.76 0 0 0 .12 1.22 2.82 2.82 0 0 0 .39 1 1.9 1.9 0 0 0 .7.63 2.21 2.21 0 0 0 1.06.23 2.64 2.64 0 0 0 .54-.06 2.9 2.9 0 0 0 .61-.2 3.55 3.55 0 0 0 .62-.37 3.18 3.18 0 0 0 .59-.57l.72.68a4.68 4.68 0 0 1-.92 1 4.41 4.41 0 0 1-1 .6 4 4 0 0 1-1 .29 5.8 5.8 0 0 1-.88.07 4.24 4.24 0 0 1-1.62-.3 3.54 3.54 0 0 1-1.25-.85 3.84 3.84 0 0 1-.81-1.34 5.1 5.1 0 0 1-.29-1.76 4.6 4.6 0 0 1 .29-1.62 4.28 4.28 0 0 1 .81-1.37 3.9 3.9 0 0 1 1.27-.95 3.79 3.79 0 0 1 1.65-.35 5.16 5.16 0 0 1 .89.08 3.53 3.53 0 0 1 .85.26 3.22 3.22 0 0 1 .75.48 2.77 2.77 0 0 1 .6.74 4 4 0 0 1 .4 1 5.61 5.61 0 0 1 .19 1.37zm-3.54-2.84a1.45 1.45 0 0 0-.63.13 1.47 1.47 0 0 0-.48.37 1.9 1.9 0 0 0-.33.57 3.21 3.21 0 0 0-.18.73h3a3.37 3.37 0 0 0-.12-.84 1.58 1.58 0 0 0-.28-.56 1 1 0 0 0-.41-.31 1.39 1.39 0 0 0-.57-.09zM26.75 2.7h2.44v20.13h-2.44z" fill="#313131"/><path fill="#313131" d="M27.98 0l2.54 4.01h-5.09L27.98 0zm-5.96 6.21h2.44v21.35h-2.44z"/><path fill="#313131" d="M23.24 3.51l2.55 4.01H20.7l2.54-4.01zm-5.95 6.21h2.44v17.84h-2.44z"/><path fill="#313131" d="M18.51 7.02l2.54 4.01h-5.09l2.55-4.01zm8.22 13.36H46.4v2.44H26.73zm4.88 4.74H46.4v2.44H31.61zm-4.88 4.73H46.4v2.44H26.73zM0 25.12h18.58v2.44H0zm0 4.73h24.46v2.44H0z"/><path fill="#313131" d="M26.75 26.11h2.44v23.64h-2.44zM0 20.38h2.44v11.19H0zm43.96 0h2.44v6.98h-2.44z"/><path fill="#313131" d="M18.01 47.31H29.2v2.44H18.01zm4.01-17.46h2.44v15h-2.44z"/><path fill="#313131" d="M17.29 31.64h2.44v18.12h-2.44zM0 20.38h14.87v2.44H0zm17.32 0h5.7v2.44h-5.7z"/></svg>