<svg id="Livello_1" xmlns="http://www.w3.org/2000/svg" viewBox="0 0 300 300"><style>.st0{fill:#fff}</style><path class="st0" d="M210.1 6c-3.3-.1-6.3 1.2-8.6 3.4l-168 168c-1 1-1.7 2.1-2.3 3.4-.1.3-.3.7-.4 1-.2.4-.4.8-.5 1.2l-24 96c-1.6 6.4 2.2 13 8.7 14.6 2 .5 4 .5 6 0l96-24c.4 0 .8-.3 1.2-.4l1-.4c1.3-.5 2.4-1.3 3.4-2.3l168-168c2.2-2.3 3.5-5.3 3.5-8.5 0-46.4-37.6-84-84-84zM34.4 265.4l16.7-66.6c25.8 4 46 24.3 49.9 50.1l-66.6 16.5zm87.8-32.6c0-23.6-30.4-55.1-55.1-55.1L214.8 30.1c24.5 0 55.1 25.8 55.1 55L122.2 232.8z"/><circle class="st0" cx="39.9" cy="259.9" r="20.3"/></svg>