<svg id="Livello_1" data-name="Livello 1" xmlns="http://www.w3.org/2000/svg" viewBox="0 0 120 120"><title>bollino_offerta</title><circle cx="60" cy="60" r="60" style="fill:#fdc812"/><text transform="translate(8.56 76.66) rotate(69.36)" style="font-size:8px;fill:#103073;font-family:Roboto;font-weight:700">S</text><text transform="matrix(0.44, 0.9, -0.9, 0.44, 10.49, 81.72)" style="font-size:8px;fill:#103073;font-family:Roboto;font-weight:700">u</text><text transform="matrix(0.5, 0.87, -0.87, 0.5, 12.62, 85.95)" style="font-size:8px;fill:#103073;font-family:Roboto;font-weight:700">l</text><text transform="matrix(0.53, 0.85, -0.85, 0.53, 13.76, 87.92)" style="font-size:8px;fill:#103073;font-family:Roboto;font-weight:700"> </text><text transform="matrix(0.58, 0.81, -0.81, 0.58, 14.91, 89.8)" style="font-size:8px;fill:#103073;font-family:Roboto;font-weight:700">v</text><text transform="translate(17.44 93.3) rotate(49.65)" style="font-size:8px;fill:#103073;font-family:Roboto;font-weight:700">a</text><text transform="translate(20.39 96.72) rotate(46.02)" style="font-size:8px;fill:#103073;font-family:Roboto;font-weight:700">l</text><text transform="translate(22.02 98.45) rotate(42.27)" style="font-size:8px;fill:#103073;font-family:Roboto;font-weight:700">o</text><text transform="translate(25.58 101.63) rotate(38.14)" style="font-size:8px;fill:#103073;font-family:Roboto;font-weight:700">r</text><text transform="matrix(0.83, 0.56, -0.56, 0.83, 27.96, 103.52)" style="font-size:8px;fill:#103073;font-family:Roboto;font-weight:700">e</text><text transform="translate(31.67 105.99) rotate(30.63)" style="font-size:8px;fill:#103073;font-family:Roboto;font-weight:700"> </text><text transform="matrix(0.88, 0.47, -0.47, 0.88, 33.52, 107.08)" style="font-size:8px;fill:#103073;font-family:Roboto;font-weight:700">i</text><text transform="translate(35.65 108.33) rotate(23.1)" style="font-size:8px;fill:#103073;font-family:Roboto;font-weight:700">m</text><text transform="translate(42.41 111.12) rotate(16.57)" style="font-size:8px;fill:#103073;font-family:Roboto;font-weight:700">p</text><text transform="translate(46.99 112.43) rotate(12.75)" style="font-size:8px;fill:#103073;font-family:Roboto;font-weight:700">i</text><text transform="translate(49.28 112.98) rotate(9.09)" style="font-size:8px;fill:#103073;font-family:Roboto;font-weight:700">a</text><text transform="translate(53.85 113.7) rotate(4.08)" style="font-size:8px;fill:#103073;font-family:Roboto;font-weight:700">n</text><text transform="matrix(1, -0.02, 0.02, 1, 58.65, 114.02)" style="font-size:8px;fill:#103073;font-family:Roboto;font-weight:700">t</text><text transform="translate(61.65 114.02) rotate(-4.08)" style="font-size:8px;fill:#103073;font-family:Roboto;font-weight:700">o</text><text transform="translate(66.38 113.64) rotate(-7.76)" style="font-size:8px;fill:#103073;font-family:Roboto;font-weight:700"> </text><text transform="matrix(0.98, -0.2, 0.2, 0.98, 68.58, 113.36)" style="font-size:8px;fill:#103073;font-family:Roboto;font-weight:700">e</text><text transform="translate(72.94 112.45) rotate(-14.87)" style="font-size:8px;fill:#103073;font-family:Roboto;font-weight:700"> </text><text transform="matrix(0.96, -0.3, 0.3, 0.96, 75, 111.9)" style="font-size:8px;fill:#103073;font-family:Roboto;font-weight:700">i</text><text transform="translate(77.27 111.23) rotate(-21.04)" style="font-size:8px;fill:#103073;font-family:Roboto;font-weight:700">n</text><text transform="matrix(0.9, -0.44, 0.44, 0.9, 81.78, 109.47)" style="font-size:8px;fill:#103073;font-family:Roboto;font-weight:700">s</text><text transform="translate(85.69 107.53) rotate(-29.92)" style="font-size:8px;fill:#103073;font-family:Roboto;font-weight:700">t</text><text transform="translate(88.34 106.02) rotate(-33.96)" style="font-size:8px;fill:#103073;font-family:Roboto;font-weight:700">a</text><text transform="matrix(0.79, -0.61, 0.61, 0.79, 92.08, 103.46)" style="font-size:8px;fill:#103073;font-family:Roboto;font-weight:700">l</text><text transform="translate(93.87 102.07) rotate(-40)" style="font-size:8px;fill:#103073;font-family:Roboto;font-weight:700">l</text><text transform="translate(95.7 100.57) rotate(-43.63)" style="font-size:8px;fill:#103073;font-family:Roboto;font-weight:700">a</text><text transform="translate(99.02 97.38) rotate(-48.37)" style="font-size:8px;fill:#103073;font-family:Roboto;font-weight:700">z</text><text transform="translate(101.85 94.15) rotate(-51.88)" style="font-size:8px;fill:#103073;font-family:Roboto;font-weight:700">i</text><text transform="matrix(0.56, -0.83, 0.83, 0.56, 103.34, 92.29)" style="font-size:8px;fill:#103073;font-family:Roboto;font-weight:700">o</text><text transform="translate(106.05 88.3) rotate(-60.77)" style="font-size:8px;fill:#103073;font-family:Roboto;font-weight:700">n</text><text transform="translate(108.39 84.08) rotate(-65.76)" style="font-size:8px;fill:#103073;font-family:Roboto;font-weight:700">e</text></svg>