<svg xmlns="http://www.w3.org/2000/svg"  viewBox="0 0 7.83 6.14"><path d="M413.39,236.75l2.32,1.16,1.21-.6-2.32-1.16-1.21.6h0Zm3.61,3.31-0.06,0-2.26-1.13a0.28,0.28,0,0,1-.16-0.26v-1.17l1.15,0.57a0.07,0.07,0,0,0,.06,0l1.26-.63v2.64h0Zm0.14-2.64v2.64l0.06,0,2.26-1.13a0.29,0.29,0,0,0,.12-0.11,0.29,0.29,0,0,0,0-.15v-1.17l-1.15.57a0.07,0.07,0,0,1-.06,0l-1.26-.63h0Zm2.62,0v1.24a0.43,0.43,0,0,1-.24.39l-2.26,1.13a0.42,0.42,0,0,1-.39,0L414.62,239a0.43,0.43,0,0,1-.24-0.39v-1.24l-1.19-.59,0,0a0.07,0.07,0,0,1,0-.1l1.24-.62-1.24-.62,0,0a0.07,0.07,0,0,1,0-.1l2.48-1.24a0.07,0.07,0,0,1,.06,0l1.33,0.67,1.33-.67a0.07,0.07,0,0,1,.06,0l2.48,1.24,0,0a0.07,0.07,0,0,1,0,.1l-1.24.62,1.24,0.62,0,0a0.07,0.07,0,0,1,0,.1l-1.19.59h0Zm-2.62-2.46v2.24l2.24-1.12-2.24-1.12h0ZM417,237.19l-2.24-1.12,2.24-1.12v2.24h0Zm2.55-1.2,1.21-.6-2.32-1.16-1.21.6,2.32,1.16h0Zm-1.11,1.92-1.21-.6,2.32-1.16,1.21,0.6-2.32,1.16h0Zm-1.53-3.08-1.21-.6-2.32,1.16,1.21,0.6Z" transform="translate(-413.16 -234.08)" style="fill:#fff;fill-rule:evenodd"/></svg>
