<svg xmlns="http://www.w3.org/2000/svg" viewBox="0 0 141.15 49.75"><title>customer</title><path d="M153.74,2625.3a3.18,3.18,0,0,1-1.31.24A2.32,2.32,0,0,1,150,2623a2.47,2.47,0,0,1,2.59-2.61,2.66,2.66,0,0,1,1.18.22l-0.16.52a2.33,2.33,0,0,0-1-.21,1.85,1.85,0,0,0-1.94,2,1.81,1.81,0,0,0,1.91,2,2.55,2.55,0,0,0,1-.21Z" transform="translate(-81.38 -2581.41)" style="fill:#313131"/><path d="M160.85,2622.93a2.33,2.33,0,0,1-2.31,2.62,2.28,2.28,0,0,1-2.23-2.52,2.36,2.36,0,0,1,2.31-2.61A2.26,2.26,0,0,1,160.85,2622.93ZM157,2623a1.78,1.78,0,0,0,1.58,2c1,0,1.59-.94,1.59-2.06a1.79,1.79,0,0,0-1.58-2C157.53,2620.94,157,2621.92,157,2623Z" transform="translate(-81.38 -2581.41)" style="fill:#313131"/><path d="M163.89,2625.46v-5h0.7l1.59,2.51a14.15,14.15,0,0,1,.89,1.61h0c-0.06-.66-0.07-1.27-0.07-2v-2.08h0.6v5H167l-1.58-2.52a15.77,15.77,0,0,1-.93-1.66h0c0,0.63.05,1.22,0.05,2v2.12h-0.6Z" transform="translate(-81.38 -2581.41)" style="fill:#313131"/><path d="M170.87,2624.68a2.27,2.27,0,0,0,1.15.32,0.89,0.89,0,0,0,1-.85,1.08,1.08,0,0,0-.94-1,1.56,1.56,0,0,1-1.31-1.41,1.43,1.43,0,0,1,1.61-1.35,2.26,2.26,0,0,1,1.1.24l-0.18.52a2,2,0,0,0-.94-0.24,0.8,0.8,0,0,0-.94.74,1.1,1.1,0,0,0,1,1,1.54,1.54,0,0,1,1.27,1.46,1.5,1.5,0,0,1-1.74,1.43,2.57,2.57,0,0,1-1.27-.32Z" transform="translate(-81.38 -2581.41)" style="fill:#313131"/><path d="M177.44,2620.49v2.94c0,1.11.49,1.58,1.16,1.58s1.21-.49,1.21-1.58v-2.94h0.65v2.9c0,1.53-.8,2.15-1.88,2.15s-1.78-.58-1.78-2.12v-2.93h0.65Z" transform="translate(-81.38 -2581.41)" style="fill:#313131"/><path d="M183.78,2620.49h0.64v4.43h2.12v0.54h-2.76v-5Z" transform="translate(-81.38 -2581.41)" style="fill:#313131"/><path d="M189.76,2621h-1.51v-0.55h3.68V2621h-1.52v4.42h-0.65V2621Z" transform="translate(-81.38 -2581.41)" style="fill:#313131"/><path d="M195.33,2620.49v5h-0.64v-5h0.64Z" transform="translate(-81.38 -2581.41)" style="fill:#313131"/><path d="M198.66,2625.46v-5h0.7L201,2623a14.17,14.17,0,0,1,.89,1.61h0c-0.06-.66-0.07-1.27-0.07-2v-2.08h0.6v5h-0.65l-1.58-2.52a15.77,15.77,0,0,1-.93-1.66h0c0,0.63.05,1.22,0.05,2v2.12h-0.6Z" transform="translate(-81.38 -2581.41)" style="fill:#313131"/><path d="M209.51,2625.24a4.64,4.64,0,0,1-1.53.27,2.33,2.33,0,0,1-2.55-2.51,2.49,2.49,0,0,1,2.69-2.56,3.06,3.06,0,0,1,1.24.23l-0.15.52a2.59,2.59,0,0,0-1.1-.21,1.86,1.86,0,0,0-2,2,1.82,1.82,0,0,0,1.92,2,2.11,2.11,0,0,0,.86-0.13v-1.48h-1v-0.52h1.64v2.39Z" transform="translate(-81.38 -2581.41)" style="fill:#313131"/><path d="M149.89,2610.27c0,0.15,0,.29,0,0.43s0,0.28,0,.4,0,0.25,0,.35,0,0.19,0,.26l1.21,0v1.24h-4.61v-1.06l0.48-.05a0.67,0.67,0,0,0,.36-0.17,0.88,0.88,0,0,0,.22-0.41,2.87,2.87,0,0,0,.08-0.76v-2.6l-4.42.05v2.37c0,0.15,0,.29,0,0.43s0,0.28,0,.4,0,0.25,0,.35,0,0.19,0,.26l1.21,0v1.24h-4.61v-1.06l0.48-.05a0.66,0.66,0,0,0,.36-0.17,0.89,0.89,0,0,0,.22-0.41,2.92,2.92,0,0,0,.08-0.76v-6.15c0-.15,0-0.29,0-0.43s0-.28,0-0.4,0-.25,0-0.35,0-.19,0-0.26l-1.21,0v-1.24h4.61v1.06a3.92,3.92,0,0,0-.49.05,0.7,0.7,0,0,0-.36.17,0.86,0.86,0,0,0-.22.41,2.88,2.88,0,0,0-.08.76v2.52h4.42v-2.34c0-.15,0-0.29,0-0.43s0-.28,0-0.4,0-.25,0-0.35,0-.19,0-0.26l-1.21,0v-1.24H151v1.06a3.92,3.92,0,0,0-.49.05,0.71,0.71,0,0,0-.36.17,0.87,0.87,0,0,0-.22.41,2.92,2.92,0,0,0-.08.76v6.15Z" transform="translate(-81.38 -2581.41)" style="fill:#313131"/><path d="M159.54,2608.58l-5.28.09a5.75,5.75,0,0,0,.12,1.22,2.82,2.82,0,0,0,.39,1,1.9,1.9,0,0,0,.7.63,2.21,2.21,0,0,0,1.06.23,2.64,2.64,0,0,0,.54-0.06,2.9,2.9,0,0,0,.61-0.2,3.55,3.55,0,0,0,.62-0.37,3.18,3.18,0,0,0,.59-0.57l0.72,0.68a4.68,4.68,0,0,1-.92,1,4.41,4.41,0,0,1-1,.6,4,4,0,0,1-1,.29,5.8,5.8,0,0,1-.88.07,4.24,4.24,0,0,1-1.62-.3A3.54,3.54,0,0,1,153,2612a3.84,3.84,0,0,1-.81-1.34,5.1,5.1,0,0,1-.29-1.76,4.6,4.6,0,0,1,.29-1.62,4.28,4.28,0,0,1,.81-1.37,3.9,3.9,0,0,1,1.27-.95,3.79,3.79,0,0,1,1.65-.35,5.16,5.16,0,0,1,.89.08,3.53,3.53,0,0,1,.85.26,3.22,3.22,0,0,1,.75.48,2.77,2.77,0,0,1,.6.74,4,4,0,0,1,.4,1A5.61,5.61,0,0,1,159.54,2608.58Zm-3.54-2.84a1.45,1.45,0,0,0-.63.13,1.47,1.47,0,0,0-.48.37,1.9,1.9,0,0,0-.33.57,3.22,3.22,0,0,0-.18.73h3a3.37,3.37,0,0,0-.12-0.84,1.58,1.58,0,0,0-.28-0.56,1,1,0,0,0-.41-0.31A1.39,1.39,0,0,0,156,2605.74Z" transform="translate(-81.38 -2581.41)" style="fill:#313131"/><path d="M160.88,2606.73a1.52,1.52,0,0,1,.26-0.86,2.27,2.27,0,0,1,.72-0.67,3.86,3.86,0,0,1,1.08-.43,5.52,5.52,0,0,1,1.32-.15,4.06,4.06,0,0,1,1.26.18,2.35,2.35,0,0,1,.93.56,2.43,2.43,0,0,1,.58,1,4.23,4.23,0,0,1,.2,1.38q0,0.41,0,.72c0,0.21,0,.4,0,0.6s0,0.39,0,.6,0,0.45,0,.72c0,0.08,0,.17,0,0.28s0,0.23,0,.35,0,0.25,0,.39,0,0.26,0,.38l1,0v1.22h-3c0-.15,0-0.28,0-0.38s0-.22,0-0.36h0a3.23,3.23,0,0,1-1.14.77,3.47,3.47,0,0,1-1.23.22,2.5,2.5,0,0,1-.93-0.16,1.89,1.89,0,0,1-.69-0.45,2,2,0,0,1-.43-0.68,2.37,2.37,0,0,1-.15-0.85,2.24,2.24,0,0,1,.18-0.92,2.44,2.44,0,0,1,.5-0.73,3.23,3.23,0,0,1,.75-0.56,5.21,5.21,0,0,1,.93-0.39,7.29,7.29,0,0,1,1-.24,9.47,9.47,0,0,1,1.08-.11v-0.84a3,3,0,0,0-.05-0.59,1.28,1.28,0,0,0-.19-0.47,0.92,0.92,0,0,0-.35-0.31,1.16,1.16,0,0,0-.55-0.1,1.8,1.8,0,0,0-.61.13,1.43,1.43,0,0,0-.49.33,0.62,0.62,0,0,1,.16.31,1.44,1.44,0,0,1,0,.29,1,1,0,0,1-.06.35,0.93,0.93,0,0,1-.2.32,1,1,0,0,1-.34.24,1.15,1.15,0,0,1-.49.09,1,1,0,0,1-.42-0.1,1,1,0,0,1-.31-0.24,1,1,0,0,1-.19-0.34A1.32,1.32,0,0,1,160.88,2606.73Zm4.12,2.47a4.7,4.7,0,0,0-.85.17,2.58,2.58,0,0,0-.69.31,1.52,1.52,0,0,0-.46.46,1.13,1.13,0,0,0-.17.61,0.93,0.93,0,0,0,.09.39,0.81,0.81,0,0,0,.2.26,0.76,0.76,0,0,0,.28.15,1.19,1.19,0,0,0,.33,0,1.56,1.56,0,0,0,.7-0.16A1.89,1.89,0,0,0,165,2611v-1.8Z" transform="translate(-81.38 -2581.41)" style="fill:#313131"/><path d="M172.1,2610.32c0,0.08,0,.17,0,0.28s0,0.23,0,.35,0,0.25,0,.39,0,0.26,0,.38l1,0v1.22h-4.21v-1a1.15,1.15,0,0,0,.53-0.1,0.66,0.66,0,0,0,.29-0.29,1.24,1.24,0,0,0,.12-0.45q0-.26,0-0.58v-6.6q0-.29,0-0.67c0-.25,0-0.5.05-0.74l-1.13,0v-1.21a9.1,9.1,0,0,0,1,0,6.26,6.26,0,0,0,.73-0.12,2.75,2.75,0,0,0,.49-0.16,1.08,1.08,0,0,0,.27-0.16h0.87v9.54Z" transform="translate(-81.38 -2581.41)" style="fill:#313131"/><path d="M173.68,2604.87a1.65,1.65,0,0,0,.78-0.21,2.72,2.72,0,0,0,.65-0.5,3.27,3.27,0,0,0,.49-0.65,3.37,3.37,0,0,0,.29-0.66h1.18v2h2v1.24l-2,0q0,1.14,0,1.89t0,1.2c0,0.3,0,.52,0,0.64v0.22a4.48,4.48,0,0,0,0,.56,1.66,1.66,0,0,0,.14.5,0.92,0.92,0,0,0,.3.36,0.83,0.83,0,0,0,.5.14l0.25,0a1.37,1.37,0,0,0,.34-0.13,2.08,2.08,0,0,0,.41-0.29,2.93,2.93,0,0,0,.45-0.52l0.78,0.72a4.61,4.61,0,0,1-.88,1,3.47,3.47,0,0,1-.84.52,2.59,2.59,0,0,1-.73.2l-0.55,0a3.75,3.75,0,0,1-.55,0,2.39,2.39,0,0,1-.56-0.16,2,2,0,0,1-.53-0.33,2.05,2.05,0,0,1-.44-0.56,3.13,3.13,0,0,1-.3-0.84,5.35,5.35,0,0,1-.11-1.16l0-3.87-1.1,0v-1.34Z" transform="translate(-81.38 -2581.41)" style="fill:#313131"/><path d="M188.73,2610.32c0,0.08,0,.17,0,0.28s0,0.23,0,.35,0,0.25,0,.39,0,0.26,0,.38l1,0v1.22H185.5v-1a1.15,1.15,0,0,0,.53-0.1,0.65,0.65,0,0,0,.29-0.29,1.25,1.25,0,0,0,.12-0.45q0-.26,0-0.58v-2.29a3,3,0,0,0-.32-1.55,1.08,1.08,0,0,0-1-.49,2.11,2.11,0,0,0-.8.18,2.51,2.51,0,0,0-.66.41v3.63c0,0.08,0,.17,0,0.28s0,0.23,0,.35,0,0.25,0,.39,0,0.26,0,.38l1,0v1.22h-4.21v-1a1.15,1.15,0,0,0,.53-0.1,0.66,0.66,0,0,0,.29-0.29,1.24,1.24,0,0,0,.12-0.45q0-.26,0-0.58v-6.6q0-.29,0-0.67c0-.25,0-0.5.05-0.74l-1.13,0v-1.21a9.1,9.1,0,0,0,1,0,6.25,6.25,0,0,0,.73-0.12,2.76,2.76,0,0,0,.49-0.16,1,1,0,0,0,.27-0.16h0.87v4.73a3.54,3.54,0,0,1,.54-0.35,5.53,5.53,0,0,1,.62-0.28,4.62,4.62,0,0,1,.63-0.19,2.53,2.53,0,0,1,.55-0.07,3.33,3.33,0,0,1,1.25.21,1.93,1.93,0,0,1,.84.64,2.83,2.83,0,0,1,.47,1.11,7.48,7.48,0,0,1,.15,1.6v2.16Z" transform="translate(-81.38 -2581.41)" style="fill:#313131"/><path d="M195.61,2607a1.49,1.49,0,0,1,0-.34,1.11,1.11,0,0,1,.15-0.36,0.8,0.8,0,0,0-.22-0.26,1.3,1.3,0,0,0-.29-0.16,1.38,1.38,0,0,0-.31-0.09l-0.27,0a1.53,1.53,0,0,0-.75.18,1.68,1.68,0,0,0-.58.55,2.85,2.85,0,0,0-.38.9,4.94,4.94,0,0,0-.14,1.23,5.92,5.92,0,0,0,.11,1.18,3.11,3.11,0,0,0,.37,1,2,2,0,0,0,.68.69,2,2,0,0,0,1,.26,2.4,2.4,0,0,0,.65-0.09,2.93,2.93,0,0,0,.62-0.25,3.36,3.36,0,0,0,.57-0.39,3.21,3.21,0,0,0,.48-0.5l0.74,0.71a5.29,5.29,0,0,1-.9,1,4.32,4.32,0,0,1-.93.6,3.77,3.77,0,0,1-.93.29,5.46,5.46,0,0,1-.9.08,4.25,4.25,0,0,1-1.53-.27,3.62,3.62,0,0,1-1.25-.8,3.79,3.79,0,0,1-.85-1.29,4.54,4.54,0,0,1-.31-1.74,4.81,4.81,0,0,1,.31-1.71,4.37,4.37,0,0,1,.85-1.41,4.07,4.07,0,0,1,1.32-1,4,4,0,0,1,1.7-.36,4.36,4.36,0,0,1,1.34.19,3.1,3.1,0,0,1,1,.49,2.06,2.06,0,0,1,.58.7,1.83,1.83,0,0,1,.2.82,1.42,1.42,0,0,1-.07.46,1.13,1.13,0,0,1-.22.38,1,1,0,0,1-.36.26,1.17,1.17,0,0,1-.48.09,1.07,1.07,0,0,1-.49-0.1,1,1,0,0,1-.32-0.25,0.91,0.91,0,0,1-.18-0.34A1.31,1.31,0,0,1,195.61,2607Z" transform="translate(-81.38 -2581.41)" style="fill:#313131"/><path d="M199.16,2606.73a1.52,1.52,0,0,1,.26-0.86,2.27,2.27,0,0,1,.72-0.67,3.86,3.86,0,0,1,1.08-.43,5.53,5.53,0,0,1,1.32-.15,4.05,4.05,0,0,1,1.26.18,2.35,2.35,0,0,1,.93.56,2.43,2.43,0,0,1,.58,1,4.23,4.23,0,0,1,.2,1.38q0,0.41,0,.72c0,0.21,0,.4,0,0.6s0,0.39,0,.6,0,0.45,0,.72c0,0.08,0,.17,0,0.28s0,0.23,0,.35,0,0.25,0,.39,0,0.26,0,.38l1,0v1.22h-3c0-.15,0-0.28,0-0.38s0-.22,0-0.36h0a3.23,3.23,0,0,1-1.14.77,3.47,3.47,0,0,1-1.23.22,2.5,2.5,0,0,1-.93-0.16,1.89,1.89,0,0,1-.69-0.45,2,2,0,0,1-.43-0.68,2.37,2.37,0,0,1-.15-0.85,2.24,2.24,0,0,1,.18-0.92,2.43,2.43,0,0,1,.5-0.73,3.23,3.23,0,0,1,.75-0.56,5.2,5.2,0,0,1,.93-0.39,7.29,7.29,0,0,1,1-.24,9.47,9.47,0,0,1,1.08-.11v-0.84a3,3,0,0,0-.05-0.59,1.28,1.28,0,0,0-.19-0.47,0.92,0.92,0,0,0-.35-0.31,1.16,1.16,0,0,0-.55-0.1,1.8,1.8,0,0,0-.61.13,1.43,1.43,0,0,0-.49.33,0.62,0.62,0,0,1,.16.31,1.44,1.44,0,0,1,0,.29,1,1,0,0,1-.06.35,0.93,0.93,0,0,1-.2.32,1,1,0,0,1-.34.24,1.15,1.15,0,0,1-.49.09,1,1,0,0,1-.42-0.1,1,1,0,0,1-.31-0.24,1,1,0,0,1-.19-0.34A1.32,1.32,0,0,1,199.16,2606.73Zm4.12,2.47a4.7,4.7,0,0,0-.85.17,2.58,2.58,0,0,0-.69.31,1.52,1.52,0,0,0-.46.46,1.13,1.13,0,0,0-.17.61,0.93,0.93,0,0,0,.09.39,0.81,0.81,0,0,0,.2.26,0.76,0.76,0,0,0,.28.15,1.19,1.19,0,0,0,.33,0,1.56,1.56,0,0,0,.7-0.16,1.9,1.9,0,0,0,.57-0.43v-1.8Z" transform="translate(-81.38 -2581.41)" style="fill:#313131"/><path d="M213,2604.62a1.84,1.84,0,0,1,.54.08,1.28,1.28,0,0,1,.45.24,1.14,1.14,0,0,1,.31.41,1.45,1.45,0,0,1,.11.6,1.32,1.32,0,0,1-.06.39,1.09,1.09,0,0,1-.2.36,1,1,0,0,1-.35.27,1.17,1.17,0,0,1-.52.11,1.41,1.41,0,0,1-.34,0,0.93,0.93,0,0,1-.32-0.15,0.94,0.94,0,0,1-.25-0.29,1.09,1.09,0,0,1-.13-0.46,0.89,0.89,0,0,0-.49.16,2.37,2.37,0,0,0-.46.4,3.34,3.34,0,0,0-.38.51,2.46,2.46,0,0,0-.24.49v2.62c0,0.08,0,.17,0,0.28s0,0.23,0,.35,0,0.25,0,.39,0,0.26,0,.38l1,0v1.22H207.4v-1a1.15,1.15,0,0,0,.53-0.1,0.66,0.66,0,0,0,.29-0.29,1.24,1.24,0,0,0,.12-0.45q0-.26,0-0.58v-2.71c0-.19,0-0.41,0-0.65s0-.48.05-0.72l-1.13,0v-1.21a8.88,8.88,0,0,0,1,0A6.5,6.5,0,0,0,209,2605a2.67,2.67,0,0,0,.49-0.16,1,1,0,0,0,.27-0.16h0.79l0.07,1.38h0q0.16-.21.38-0.47a3.39,3.39,0,0,1,.52-0.48,3.12,3.12,0,0,1,.65-0.38A1.92,1.92,0,0,1,213,2604.62Z" transform="translate(-81.38 -2581.41)" style="fill:#313131"/><path d="M222.46,2608.58l-5.28.09a5.76,5.76,0,0,0,.12,1.22,2.82,2.82,0,0,0,.39,1,1.9,1.9,0,0,0,.7.63,2.21,2.21,0,0,0,1.06.23,2.64,2.64,0,0,0,.54-0.06,2.9,2.9,0,0,0,.61-0.2,3.55,3.55,0,0,0,.62-0.37,3.18,3.18,0,0,0,.59-0.57l0.72,0.68a4.68,4.68,0,0,1-.92,1,4.41,4.41,0,0,1-1,.6,4,4,0,0,1-1,.29,5.8,5.8,0,0,1-.88.07,4.24,4.24,0,0,1-1.62-.3,3.54,3.54,0,0,1-1.25-.85,3.84,3.84,0,0,1-.81-1.34,5.1,5.1,0,0,1-.29-1.76,4.6,4.6,0,0,1,.29-1.62,4.28,4.28,0,0,1,.81-1.37,3.9,3.9,0,0,1,1.27-.95,3.79,3.79,0,0,1,1.65-.35,5.16,5.16,0,0,1,.89.08,3.53,3.53,0,0,1,.85.26,3.22,3.22,0,0,1,.75.48,2.77,2.77,0,0,1,.6.74,4,4,0,0,1,.4,1A5.61,5.61,0,0,1,222.46,2608.58Zm-3.54-2.84a1.45,1.45,0,0,0-.63.13,1.47,1.47,0,0,0-.48.37,1.9,1.9,0,0,0-.33.57,3.21,3.21,0,0,0-.18.73h3a3.37,3.37,0,0,0-.12-0.84,1.58,1.58,0,0,0-.28-0.56,1,1,0,0,0-.41-0.31A1.39,1.39,0,0,0,218.92,2605.74Z" transform="translate(-81.38 -2581.41)" style="fill:#313131"/><rect x="26.75" y="2.7" width="2.44" height="20.13" style="fill:#313131"/><polygon points="27.98 0 30.52 4.01 25.43 4.01 27.98 0" style="fill:#313131"/><rect x="22.02" y="6.21" width="2.44" height="21.35" style="fill:#313131"/><polygon points="23.24 3.51 25.79 7.52 20.7 7.52 23.24 3.51" style="fill:#313131"/><rect x="17.29" y="9.72" width="2.44" height="17.84" style="fill:#313131"/><polygon points="18.51 7.02 21.05 11.03 15.96 11.03 18.51 7.02" style="fill:#313131"/><rect x="26.73" y="20.38" width="19.67" height="2.44" style="fill:#313131"/><rect x="31.61" y="25.12" width="14.79" height="2.44" style="fill:#313131"/><rect x="26.73" y="29.85" width="19.67" height="2.44" style="fill:#313131"/><rect y="25.12" width="18.58" height="2.44" style="fill:#313131"/><rect y="29.85" width="24.46" height="2.44" style="fill:#313131"/><rect x="26.75" y="26.11" width="2.44" height="23.64" style="fill:#313131"/><rect y="20.38" width="2.44" height="11.19" style="fill:#313131"/><rect x="43.96" y="20.38" width="2.44" height="6.98" style="fill:#313131"/><rect x="18.01" y="47.31" width="11.19" height="2.44" style="fill:#313131"/><rect x="22.02" y="29.85" width="2.44" height="15" style="fill:#313131"/><rect x="17.29" y="31.64" width="2.44" height="18.12" style="fill:#313131"/><rect y="20.38" width="14.87" height="2.44" style="fill:#313131"/><rect x="17.32" y="20.38" width="5.7" height="2.44" style="fill:#313131"/></svg>
