<svg id="4022fe1c-3760-481c-a980-08a4d6fbe3ba" data-name="Livello 1" xmlns="http://www.w3.org/2000/svg" viewBox="0 0 243.83 200"><title>home</title><path d="M149.8,50a6.21,6.21,0,0,0-3.6,1.2l-114,90a6,6,0,1,0,7.5,9.4l110.2-87,110.2,87a6.19,6.19,0,0,0,8.4-.9c1.9-2.5,1.7-6.6-.9-8.5l-114-90a6.12,6.12,0,0,0-3.8-1.2h0ZM75,134.7l-12,9.5V240a6,6,0,0,0,6,6h57a6,6,0,0,0,6-6V204a18,18,0,0,1,36,0v36a6,6,0,0,0,6,6h57a6,6,0,0,0,6-6V144.2l-12-9.5V234H180V204a30,30,0,0,0-60,0v30H75V134.7Z" transform="translate(-27.94 -48)" style="fill:#103073;stroke:#103073;stroke-miterlimit:10;stroke-width:4px"/></svg>