<?xml version="1.0" encoding="utf-8"?>
<!-- Generator: Adobe Illustrator 22.0.1, SVG Export Plug-In . SVG Version: 6.00 Build 0)  -->
<svg version="1.1" id="Livello_1" xmlns="http://www.w3.org/2000/svg" xmlns:xlink="http://www.w3.org/1999/xlink" x="0px" y="0px"
	 viewBox="0 0 300 300" style="enable-background:new 0 0 300 300;" xml:space="preserve">
<style type="text/css">
	.st0{fill:#FFFFFF;}
</style>
<title>Artboard 456</title>
<g>
	<g>
		<path class="st0" d="M210.1,6c-3.3-0.1-6.3,1.2-8.6,3.4l-168,168c-1,1-1.7,2.1-2.3,3.4c-0.1,0.3-0.3,0.7-0.4,1
			c-0.2,0.4-0.4,0.8-0.5,1.2l-24,96c-1.6,6.4,2.2,13,8.7,14.6c2,0.5,4,0.5,6,0l96-24c0.4,0,0.8-0.3,1.2-0.4l1-0.4
			c1.3-0.5,2.4-1.3,3.4-2.3l168-168c2.2-2.3,3.5-5.3,3.5-8.5C294.1,43.6,256.5,6,210.1,6z M34.4,265.4l16.7-66.6
			c25.8,4,46,24.3,49.9,50.1L34.4,265.4z M122.2,232.8c0-23.6-30.4-55.1-55.1-55.1L214.8,30.1c24.5,0,55.1,25.8,55.1,55L122.2,232.8
			z"/>
	</g>
	<circle class="st0" cx="39.9" cy="259.9" r="20.3"/>
</g>
</svg>
