<svg xmlns="http://www.w3.org/2000/svg" width="73.8" height="73.8"><path d="M7.2 38.9H2c-1.1 0-2-.9-2-2s.9-2 2-2h5.2c1.1 0 2 .9 2 2s-.9 2-2 2zm64.6-4h-5.2c-1.1 0-2 .9-2 2s.9 2 2 2h5.2c1.1 0 2-.9 2-2s-.9-2-2-2zM36.9 64.6c-1.1 0-2 .9-2 2v5.2c0 1.1.9 2 2 2s2-.9 2-2v-5.2c0-1.1-.9-2-2-2zm0-55.4c1.1 0 2-.9 2-2V2c0-1.1-.9-2-2-2s-2 .9-2 2v5.2c0 1.1.9 2 2 2zM10.2 50l-4.5 2.6c-1 .6-1.3 1.8-.7 2.8.4.6 1.1 1 1.8 1 .3 0 .7-.1 1-.3l4.5-2.6c1-.6 1.3-1.8.7-2.8-.6-.9-1.8-1.3-2.8-.7zm52.4-25.9c.3 0 .7-.1 1-.3l4.5-2.6c1-.6 1.3-1.8.7-2.8-.6-1-1.8-1.3-2.8-.7l-4.5 2.6c-1 .6-1.3 1.8-.7 2.8.4.6 1.1 1 1.8 1zm-9.1 37.5c-.6-1-1.8-1.3-2.8-.7-1 .6-1.3 1.8-.7 2.8l2.6 4.5c.4.6 1.1 1 1.8 1 .3 0 .7-.1 1-.3 1-.6 1.3-1.8.7-2.8l-2.6-4.5zM21.2 5.7c-.6-1-1.8-1.3-2.8-.7-1 .6-1.3 1.8-.7 2.8l2.6 4.5c.4.6 1.1 1 1.8 1 .3 0 .7-.1 1-.3 1-.6 1.3-1.8.7-2.8l-2.6-4.5zm1.9 55.1c-1-.6-2.2-.2-2.8.7L17.7 66c-.6 1-.2 2.2.7 2.8.3.2.7.3 1 .3.7 0 1.4-.4 1.8-1l2.6-4.5c.6-1 .2-2.2-.7-2.8zM55.4 4.9c-1-.6-2.2-.2-2.8.7L50 10.1c-.6 1-.2 2.2.7 2.8.3.2.7.3 1 .3.7 0 1.4-.4 1.8-1l2.6-4.5c.6-1 .2-2.2-.7-2.8zm12.7 47.7L63.6 50c-1-.6-2.2-.2-2.8.7-.6 1-.2 2.2.7 2.8l4.5 2.6c.3.2.7.3 1 .3.7 0 1.4-.4 1.8-1 .6-1 .3-2.3-.7-2.8zM12.2 20.3l-4.5-2.6c-1-.6-2.2-.2-2.8.7-.6 1-.2 2.2.7 2.8l4.5 2.6c.3.2.7.3 1 .3.7 0 1.4-.4 1.8-1 .6-1 .3-2.2-.7-2.8zm40 28.2c.7-.9.5-2.2-.4-2.8l-11.1-8.4v-.4c0-1.6-1-3-2.4-3.6V14.6c0-.8-.6-1.4-1.4-1.4s-1.4.6-1.4 1.4v18.7c-1.4.6-2.4 1.9-2.4 3.6 0 2.1 1.7 3.8 3.8 3.8.5 0 .9-.1 1.4-.3l11.1 8.5c.4.3.8.4 1.2.4.6 0 1.2-.3 1.6-.8z" fill="#0b1e60"/></svg>